<svg width="64" height="64" viewBox="0 0 64 64" fill="none" xmlns="http://www.w3.org/2000/svg">
  <defs>
    <linearGradient id="fav-bg" x1="0" y1="0" x2="64" y2="64" gradientUnits="userSpaceOnUse">
      <stop offset="0" stop-color="#2563EB"/>
      <stop offset="1" stop-color="#1E40AF"/>
    </linearGradient>
  </defs>
  <rect width="64" height="64" rx="14" fill="url(#fav-bg)"/>
  <g transform="translate(8,8)" stroke="#FFFFFF" stroke-width="1.7" stroke-linecap="round" opacity="0.95">
    <line x1="24" y1="24" x2="39" y2="24"/>
    <line x1="24" y1="24" x2="31.5" y2="11"/>
    <line x1="24" y1="24" x2="16.5" y2="11"/>
    <line x1="24" y1="24" x2="9" y2="24"/>
    <line x1="24" y1="24" x2="16.5" y2="37"/>
    <line x1="24" y1="24" x2="31.5" y2="37"/>
    <line x1="39" y1="24" x2="31.5" y2="37"/>
    <line x1="31.5" y1="37" x2="16.5" y2="37"/>
    <line x1="16.5" y1="37" x2="9" y2="24"/>
    <line x1="9" y1="24" x2="16.5" y2="11"/>
    <line x1="16.5" y1="11" x2="31.5" y2="11"/>
    <line x1="31.5" y1="11" x2="39" y2="24"/>
  </g>
  <g transform="translate(8,8)" fill="#FFFFFF">
    <circle cx="39" cy="24" r="2.8"/><circle cx="31.5" cy="11" r="2.8"/><circle cx="16.5" cy="11" r="2.8"/>
    <circle cx="9" cy="24" r="2.8"/><circle cx="16.5" cy="37" r="2.8"/><circle cx="31.5" cy="37" r="2.8"/>
  </g>
  <circle transform="translate(8,8)" cx="24" cy="24" r="4.4" fill="#BBD3FF"/>
</svg>
