<svg xmlns="http://www.w3.org/2000/svg" viewBox="0 0 400 225" fill="none" role="img" aria-label="Cloud Solutions illustration">
  <defs>
    <linearGradient id="bg" x1="0" y1="0" x2="400" y2="225" gradientUnits="userSpaceOnUse">
      <stop stop-color="#1E40AF"/><stop offset="0.5" stop-color="#2563EB"/><stop offset="1" stop-color="#0EA5E9"/>
    </linearGradient>
    <radialGradient id="gl" cx="0.5" cy="0.38" r="0.65"><stop stop-color="#BBD3FF" stop-opacity="0.38"/><stop offset="1" stop-color="#BBD3FF" stop-opacity="0"/></radialGradient>
    <pattern id="dots" width="22" height="22" patternUnits="userSpaceOnUse"><circle cx="2" cy="2" r="1" fill="#ffffff" opacity="0.12"/></pattern>
  </defs>
  <rect width="400" height="225" fill="url(#bg)"/>
  <rect width="400" height="225" fill="url(#dots)"/>
  <rect width="400" height="225" fill="url(#gl)"/>
  <path d="M158 132 a26 26 0 0 1 -1 -50 a32 32 0 0 1 61 -7 a22 22 0 0 1 5 57 Z" stroke="#fff" stroke-width="3" fill="rgba(255,255,255,.06)" stroke-linejoin="round"/>
<path d="M195 96 v40 M182 110 l13 -14 13 14" stroke="#5EEAD4" stroke-width="3.4" fill="none" stroke-linecap="round" stroke-linejoin="round"/>
<g fill="#9BE3FF"><circle cx="150" cy="160" r="3.5"/><circle cx="195" cy="168" r="4"/><circle cx="240" cy="158" r="3.5"/></g>
<g stroke="#9BE3FF" stroke-width="2" opacity=".4"><path d="M150 152 V146 M195 160 V150 M240 150 V144"/></g>
</svg>