<svg xmlns="http://www.w3.org/2000/svg" viewBox="0 0 400 225" fill="none" role="img" aria-label="Identity &amp; Access Management illustration">
  <defs>
    <linearGradient id="bg" x1="0" y1="0" x2="400" y2="225" gradientUnits="userSpaceOnUse">
      <stop stop-color="#1E40AF"/><stop offset="0.5" stop-color="#2563EB"/><stop offset="1" stop-color="#0EA5E9"/>
    </linearGradient>
    <radialGradient id="gl" cx="0.5" cy="0.38" r="0.65"><stop stop-color="#BBD3FF" stop-opacity="0.38"/><stop offset="1" stop-color="#BBD3FF" stop-opacity="0"/></radialGradient>
    <pattern id="dots" width="22" height="22" patternUnits="userSpaceOnUse"><circle cx="2" cy="2" r="1" fill="#ffffff" opacity="0.12"/></pattern>
  </defs>
  <rect width="400" height="225" fill="url(#bg)"/>
  <rect width="400" height="225" fill="url(#dots)"/>
  <rect width="400" height="225" fill="url(#gl)"/>
  <circle cx="158" cy="106" r="50" stroke="#fff" stroke-width="2.2" opacity=".55" fill="none"/>
<circle cx="158" cy="90" r="16" fill="#9BE3FF"/>
<path d="M132 126 a26 26 0 0 1 52 0" stroke="#fff" stroke-width="3.2" fill="none" stroke-linecap="round"/>
<g stroke="#fff" stroke-width="2.4" opacity=".8" fill="none" stroke-linecap="round"><path d="M210 106 H252"/><path d="M208 96 q28 -28 48 -32"/><path d="M208 116 q28 28 48 32"/></g>
<g fill="#5EEAD4"><rect x="254" y="94" width="24" height="24" rx="6"/><rect x="260" y="54" width="22" height="22" rx="6"/><rect x="260" y="136" width="22" height="22" rx="6"/></g>
</svg>