<svg xmlns="http://www.w3.org/2000/svg" viewBox="0 0 400 225" fill="none" role="img" aria-label="Network Infrastructure illustration">
  <defs>
    <linearGradient id="bg" x1="0" y1="0" x2="400" y2="225" gradientUnits="userSpaceOnUse">
      <stop stop-color="#1E40AF"/><stop offset="0.5" stop-color="#2563EB"/><stop offset="1" stop-color="#0EA5E9"/>
    </linearGradient>
    <radialGradient id="gl" cx="0.5" cy="0.38" r="0.65"><stop stop-color="#BBD3FF" stop-opacity="0.38"/><stop offset="1" stop-color="#BBD3FF" stop-opacity="0"/></radialGradient>
    <pattern id="dots" width="22" height="22" patternUnits="userSpaceOnUse"><circle cx="2" cy="2" r="1" fill="#ffffff" opacity="0.12"/></pattern>
  </defs>
  <rect width="400" height="225" fill="url(#bg)"/>
  <rect width="400" height="225" fill="url(#dots)"/>
  <rect width="400" height="225" fill="url(#gl)"/>
  <g stroke="#fff" stroke-width="2.4" opacity=".85" stroke-linecap="round">
<path d="M200 112 L272 112M200 112 L236 50M200 112 L164 50M200 112 L128 112M200 112 L164 174M200 112 L236 174"/>
<path d="M272 112 L236 174M236 174 L164 174M164 174 L128 112M128 112 L164 50M164 50 L236 50M236 50 L272 112"/></g>
<g fill="#9BE3FF"><circle cx="272" cy="112" r="5.5"/><circle cx="236" cy="50" r="5.5"/><circle cx="164" cy="50" r="5.5"/><circle cx="128" cy="112" r="5.5"/><circle cx="164" cy="174" r="5.5"/><circle cx="236" cy="174" r="5.5"/></g>
<circle cx="200" cy="112" r="11" fill="#5EEAD4"/><circle cx="218" cy="81" r="4" fill="#fff"/>
</svg>